# xmcd
#
# Track frame offsets:
#	150
#	16407
#	26090
#	36595
#	44532
#	62415
#	76037
#	90247
#	102957
#	114085
#
# Disc length: 1637 seconds
#
# Revision: 0
# Processed by: cddbd v1.5.1PL0 Copyright (c) Steve Scherf et al.
# Submitted via: dBpowerAMP V4.0
#
DISCID=6d06630a
DTITLE=Johnny Bond - Hall of Fame 1999
DYEAR=1999
DGENRE=Country
TTITLE0=Ten Little Bottles
TTITLE1=Divorce Me C.O.D
TTITLE2=Sick, Sober, And Sorry
TTITLE3=Love Song In 32 Bars
TTITLE4=Gear Jammer and The Hobo (w/ Red Sovine)
TTITLE5=Three Sheets In The Wind
TTITLE6=Here Come The Elephants
TTITLE7=Hot Rod Lincoln
TTITLE8=Of Horseradish And Cactus
TTITLE9=Thinkin' Tonite (w/ Cowboy Copas)
EXTD=
EXTT0=
EXTT1=
EXTT2=
EXTT3=
EXTT4=
EXTT5=
EXTT6=
EXTT7=
EXTT8=
EXTT9=
PLAYORDER=
